<svg width="98" height="93" viewBox="0 0 98 93" fill="none" xmlns="http://www.w3.org/2000/svg">
<path d="M49 0L60.4502 35.2401L97.5039 35.2401L67.5268 57.0197L78.9771 92.2599L49 70.4803L19.023 92.2599L30.4732 57.0197L0.496117 35.2401L37.5498 35.2401L49 0Z" fill="#90DDF0"/>
<path d="M49 0L60.4502 35.2401L97.5039 35.2401L67.5268 57.0197L78.9771 92.2599L49 70.4803L19.023 92.2599L30.4732 57.0197L0.496117 35.2401L37.5498 35.2401L49 0Z" fill="#90DDF0"/>
<path d="M49 0L60.4502 35.2401L97.5039 35.2401L67.5268 57.0197L78.9771 92.2599L49 70.4803L19.023 92.2599L30.4732 57.0197L0.496117 35.2401L37.5498 35.2401L49 0Z" fill="#90DDF0"/>
<path d="M49 0L60.4502 35.2401L97.5039 35.2401L67.5268 57.0197L78.9771 92.2599L49 70.4803L19.023 92.2599L30.4732 57.0197L0.496117 35.2401L37.5498 35.2401L49 0Z" fill="#90DDF0"/>
</svg>
